<svg width="80" height="80" viewBox="0 0 80 80" fill="none" xmlns="http://www.w3.org/2000/svg">
<path d="M58.3334 21.6667H58.3667M23.3334 6.66667H56.6667C65.8714 6.66667 73.3334 14.1286 73.3334 23.3333V56.6667C73.3334 65.8714 65.8714 73.3333 56.6667 73.3333H23.3334C14.1286 73.3333 6.66669 65.8714 6.66669 56.6667V23.3333C6.66669 14.1286 14.1286 6.66667 23.3334 6.66667ZM53.3334 37.9C53.7447 40.6742 53.2709 43.5074 51.9792 45.9967C50.6876 48.4861 48.6438 50.5047 46.1388 51.7656C43.6337 53.0265 40.7948 53.4653 38.026 53.0198C35.2571 52.5742 32.6992 51.267 30.7162 49.2839C28.7331 47.3008 27.4258 44.7429 26.9802 41.9741C26.5347 39.2052 26.9736 36.3663 28.2344 33.8613C29.4953 31.3562 31.514 29.3125 34.0033 28.0208C36.4926 26.7291 39.3259 26.2553 42.1 26.6667C44.9298 27.0863 47.5495 28.4049 49.5723 30.4277C51.5951 32.4505 52.9137 35.0703 53.3334 37.9Z" stroke="#FFF68F" stroke-width="4" stroke-linecap="round" stroke-linejoin="round"/>
</svg>
